HIERARCHY
ROOT Hips
{
	OFFSET 0.000000 0.000000 0.000000 
	CHANNELS 6 Xposition Yposition Zposition Yrotation Zrotation Xrotation 
	JOINT Lumbar
	{
		OFFSET 0.000000 0.000000 0.000000 
		CHANNELS 3 Zrotation Xrotation Yrotation
		JOINT Neck
		{
			OFFSET 0.000000 0.445665 0.000000 
			CHANNELS 3 Zrotation Xrotation Yrotation
			End Site
			{
				OFFSET 0.000000 0.227535 0.000000 
			}
		}
		JOINT RightShoulder
		{
			OFFSET 0.019635 0.377685 0.194865 
			CHANNELS 3 Zrotation Xrotation Yrotation
			JOINT RightElbow
			{
				OFFSET 0.000000 -0.243375 0.000000 
				CHANNELS 2 Zrotation Yrotation
				JOINT RightWrist
				{
					OFFSET 0.000000 -0.264825 0.000000 
					CHANNELS 2 Zrotation Xrotation
					End Site
					{
						OFFSET 0.006600 -0.176220 0.000990 
					}
				}
			}
		}
		JOINT LeftShoulder
		{
			OFFSET 0.019635 0.377685 -0.194865 
			CHANNELS 3 Zrotation Xrotation Yrotation
			JOINT LeftElbow
			{
				OFFSET 0.000000 -0.243375 0.000000 
				CHANNELS 2 Zrotation Yrotation
				JOINT LeftWrist
				{
					OFFSET 0.000000 -0.264825 0.000000 
					CHANNELS 2 Zrotation Xrotation
					End Site
					{
						OFFSET 0.006600 -0.176220 -0.000990 
					}
				}
			}
		}
	}
	JOINT RightHip
	{
		OFFSET 0.052140 -0.069960 0.075570 
		CHANNELS 3 Zrotation Xrotation Yrotation
		JOINT RightKnee
		{
			OFFSET 0.000000 -0.402270 0.000000 
			CHANNELS 1 Zrotation
			JOINT RightAnkle
			{
				OFFSET 0.000000 -0.404085 0.000000 
				CHANNELS 3 Zrotation Xrotation Yrotation
				End Site
				{
					OFFSET 0.204105 -0.089430 0.008415 
				}
			}
		}
	}
	JOINT LeftHip
	{
		OFFSET 0.052140 -0.069960 -0.075570 
		CHANNELS 3 Zrotation Xrotation Yrotation
		JOINT LeftKnee
		{
			OFFSET 0.000000 -0.402270 0.000000 
			CHANNELS 1 Zrotation
			JOINT LeftAnkle
			{
				OFFSET 0.000000 -0.404085 0.000000 
				CHANNELS 3 Zrotation Xrotation Yrotation
				End Site
				{
					OFFSET 0.204105 -0.089430 -0.008415 
				}
			}
		}
	}
}
MOTION
Frames: 22
Frame Time: 0.02
-0.02094 0.02518 1.34371 359.43162 -29.11482 -8.8428 35.71841 0.21727 -3.69442 -16.49122 19.49517 -2.11862 -11.19711 -27.97899 35.5533 75.40463 89.9937 4.84902 1.11794 -21.59193 24.75224 -6.36459 47.3501 -80.41976 -3.53612 -2.10209 47.69558 7.34732 -18.17299 -28.03742 -8.0316 -0.53278 -2.57411 29.95738 22.03947 -4.57138 -26.95185 -7.61821 -0.07116 2.26995
-0.01438 0.02624 1.34987 360.71156 -29.32978 -8.79145 35.75289 0.22605 -3.49679 -16.49596 19.27638 -2.11863 -11.28025 -28.89563 35.19438 79.58316 91.85619 4.85013 1.79851 -22.20131 25.0745 -6.08011 47.20067 -81.15032 -2.97247 -2.10107 46.98958 7.58895 -19.09218 -27.13371 -7.99693 -0.5504 -2.58263 31.9041 22.31572 -5.84172 -29.25757 -7.94548 -0.19477 2.22331
-0.00858 0.02734 1.35564 362.04877 -29.58376 -8.7308 35.81247 0.23124 -3.41897 -16.54846 19.01125 -2.11863 -10.96403 -29.78857 34.90476 84.38602 94.46336 5.03899 2.67733 -22.80832 25.38722 -5.98298 47.30615 -82.49414 -2.00739 -2.12134 46.30965 7.83189 -20.02243 -26.07946 -7.97031 -0.56603 -2.59057 34.28143 22.50965 -7.19362 -31.95027 -8.31931 -0.32644 2.1744
-0.00247 0.02842 1.36155 363.35684 -29.81708 -8.67141 35.8558 0.2345 -3.26873 -16.57824 18.78319 -2.11863 -10.7934 -30.67242 34.56069 88.88721 96.65959 5.15885 3.42948 -23.4008 25.67995 -5.77691 47.30722 -83.84815 -1.12692 -2.17777 45.61954 8.07329 -20.92981 -25.09727 -7.94003 -0.5833 -2.59921 36.43669 22.72617 -8.47926 -34.42652 -8.66197 -0.44633 2.13
0.0038 0.02951 1.36766 364.67761 -30.0643 -8.62544 35.91705 0.2548 -3.18471 -16.60757 18.49139 -2.11863 -10.78701 -31.64182 34.30419 93.50211 99.16011 5.20261 4.33654 -24.0591 26.07507 -5.66906 47.2724 -84.05824 -0.63152 -2.04822 44.91756 8.31651 -21.92929 -24.09698 -7.90857 -0.59692 -2.60574 38.71769 23.00473 -9.89839 -37.09592 -9.04733 -0.60035 2.07098
0.00956 0.03058 1.37324 365.98796 -30.29185 -8.54881 35.94841 0.23797 -2.997 -16.6503 18.31861 -2.11864 -10.33516 -32.42726 33.88654 98.00841 101.19436 5.44931 4.96671 -24.579 26.25656 -5.40793 47.36772 -86.69656 0.72606 -2.29665 44.2504 8.5561 -22.73266 -23.10202 -7.8817 -0.61841 -2.61683 40.83138 23.13553 -11.05385 -39.43669 -9.35511 -0.68542 2.04178
0.01413 0.0316 1.37755 367.22793 -30.44781 -8.39175 35.88466 0.11975 -2.468 -16.72722 18.5013 -2.11864 -8.79731 -32.70322 32.992 102.12795 101.88662 6.24671 4.79823 -24.72638 25.82724 -4.60276 47.76476 -96.78506 4.67511 -3.72943 43.64798 8.79719 -22.99764 -22.13046 -7.86858 -0.65533 -2.638 42.40341 22.86871 -11.47267 -40.89494 -9.43161 -0.57655 2.09585
0.01821 0.0326 1.38133 368.46045 -30.58364 -8.20381 35.79136 -0.03594 -1.83628 -16.81519 18.8021 -2.11865 -6.81637 -32.79538 31.9367 106.09906 102.06498 7.23659 4.34222 -24.73286 25.18673 -3.64921 48.28129 -109.14191 9.42444 -5.51745 43.08488 9.03266 -23.06179 -21.17514 -7.85952 -0.70144 -2.66424 43.78519 22.45794 -11.61893 -41.98418 -9.4296 -0.39871 2.17972
0.02249 0.0336 1.3853 369.71396 -30.73354 -8.02852 35.71616 -0.17507 -1.26956 -16.89293 19.03837 -2.11866 -5.00505 -32.97678 30.9661 110.09136 102.3929 8.11609 4.00776 -24.79821 24.6586 -2.81332 48.73846 -119.85871 13.59965 -7.0455 42.52035 9.26362 -23.21127 -20.23031 -7.84676 -0.74786 -2.6899 45.23618 22.11927 -11.88243 -43.16378 -9.46675 -0.25291 2.24993
0.02684 0.03467 1.38948 370.89453 -30.86447 -7.85832 35.62234 -0.31275 -0.62984 -16.99384 19.31901 -2.11867 -3.30867 -33.13538 29.9491 114.30448 103.08878 9.09867 3.7164 -24.88581 24.06333 -1.77605 49.22656 -133.11897 18.66047 -8.982 41.88665 9.52511 -23.38509 -19.20307 -7.84185 -0.77548 -2.70833 46.77737 21.74903 -12.1809 -44.68801 -9.48975 -0.10272 2.32136
0.03094 0.03557 1.39308 372.22534 -31.02912 -7.67083 35.55964 -0.46179 -0.11589 -17.04899 19.53572 -2.11868 -1.27948 -33.29547 28.9891 118.01025 102.90205 9.90984 3.26732 -24.89293 23.55487 -1.11544 49.67464 -141.67467 22.0826 -10.16213 41.40681 9.72078 -23.46207 -18.35543 -7.82174 -0.84419 -2.74297 48.07717 21.41205 -12.33574 -45.39617 -9.52432 0.05265 2.39637
0.0345 0.03603 1.39532 373.96477 -31.29574 -7.4389 35.593 -0.63742 0.02299 -16.971 19.54876 -2.11868 1.6143 -33.52753 28.23139 120.37854 100.26586 10.20034 2.4249 -24.7191 23.36402 -1.57398 49.98643 -136.1393 20.59827 -9.07788 41.33569 9.74358 -23.30454 -17.98303 -7.75625 -1.02665 -2.82164 48.77619 21.19708 -12.19103 -43.98479 -9.60136 0.21502 2.47825
0.03781 0.03631 1.39697 375.85638 -31.596 -7.19159 35.65804 -0.8223 0.03306 -16.84719 19.49342 -2.11868 4.8145 -33.76341 27.53556 122.23205 96.7802 10.31087 1.43666 -24.46834 23.26335 -2.4078 50.25182 -125.88688 17.46859 -7.23638 41.4192 9.69892 -23.05908 -17.795 -7.67577 -1.24968 -2.91634 49.23247 21.02182 -11.89737 -41.75441 -9.6964 0.37235 2.55902
0.0412 0.03666 1.39884 377.68392 -31.87814 -6.95399 35.70655 -1.00015 0.10408 -16.74674 19.4683 -2.11868 7.83845 -33.98251 26.80695 124.30148 93.77156 10.50299 0.53425 -24.24778 23.10379 -3.04072 50.53493 -118.15212 15.21352 -5.80014 41.43597 9.68028 -22.86482 -17.53394 -7.60367 -1.45248 -3.00338 49.78582 20.83221 -11.66129 -39.86877 -9.7858 0.53354 2.64119
0.04472 0.03704 1.40091 379.49175 -32.17176 -6.70332 35.76302 -1.19152 0.16738 -16.63573 19.45038 -2.11868 11.03898 -34.25821 26.09097 126.4464 90.36565 10.70261 -0.45546 -24.0405 23.01093 -3.7965 50.83675 -108.92987 12.45609 -4.11948 41.43898 9.68116 -22.61741 -17.22673 -7.52497 -1.66315 -3.09224 50.39113 20.62224 -11.49002 -38.08771 -9.8525 0.71566 2.73251
0.0479 0.03732 1.40241 381.37436 -32.44947 -6.47725 35.81086 -1.3561 0.21618 -16.53602 19.40034 -2.11868 13.93278 -34.41996 25.3673 128.30845 87.58674 10.84155 -1.30074 -23.79148 22.80524 -4.38771 51.0868 -101.64123 10.3374 -2.7619 41.50716 9.62528 -22.46081 -17.06073 -7.45657 -1.86695 -3.18101 50.82997 20.4656 -11.11235 -35.89749 -9.98337 0.8205 2.78919
0.05025 0.03739 1.40254 383.44727 -32.67709 -6.31809 35.82709 -1.44692 0.24467 -16.47574 19.27247 -2.11868 15.95099 -34.2617 24.59225 129.55935 86.78779 10.85581 -1.65186 -23.4267 22.25026 -4.42915 51.20513 -100.97148 10.439 -2.49516 41.71468 9.43026 -22.59205 -17.22749 -7.41867 -2.04181 -3.26587 50.89607 20.4502 -10.55413 -32.79698 -10.1823 0.99633 2.88401
0.05225 0.03737 1.40208 385.58587 -32.88722 -6.18544 35.83376 -1.50977 0.26467 -16.42894 19.11525 -2.11868 17.63831 -33.99051 23.8108 130.5357 86.63959 10.81579 -1.86021 -23.02708 21.58247 -4.29242 51.27181 -102.38243 11.22852 -2.57658 41.98272 9.18021 -22.81614 -17.53244 -7.39193 -2.20826 -3.35 50.80003 20.4869 -9.73833 -29.31477 -10.4611 1.05058 2.92314
0.05438 0.03738 1.40183 387.68114 -33.1041 -6.04373 35.84493 -1.58362 0.29584 -16.37778 18.97463 -2.11868 19.44533 -33.77472 23.04314 131.6097 86.1749 10.79869 -2.17427 -22.6565 20.97787 -4.24151 51.36225 -102.73829 11.6605 -2.48655 42.22471 8.95479 -22.98814 -17.7816 -7.3611 -2.37865 -3.43433 50.75948 20.49832 -8.79825 -25.99202 -10.77752 0.9627 2.89466
0.05664 0.03744 1.40183 389.84031 -33.32729 -5.88819 35.85635 -1.66513 0.29192 -16.31736 18.81756 -2.11868 21.39571 -33.54124 22.23219 132.78058 85.78615 10.7773 -2.32982 -22.22653 20.32655 -4.18711 51.45214 -103.36517 12.21508 -2.42139 42.46618 8.72893 -23.19746 -18.00651 -7.32559 -2.55029 -3.51991 50.78203 20.51871 -8.83253 -22.6849 -10.79898 1.67004 3.24103
0.05854 0.03736 1.40115 391.87789 -33.53263 -5.7688 35.86478 -1.7238 0.36047 -16.28029 18.68909 -2.11868 22.96128 -33.31839 21.50837 133.69066 85.38196 10.76119 -2.76892 -21.91406 19.74386 -4.08779 51.52877 -104.01816 12.7117 -2.40291 42.72084 8.49142 -23.35385 -18.3137 -7.30269 -2.71641 -3.60233 50.64426 20.53112 -6.82729 -19.28375 -11.43282 0.73986 2.81525
0.05955 0.03696 1.39882 393.58076 -33.69383 -5.73586 35.86533 -1.72706 0.6338 -16.30252 18.64321 -2.11868 23.57233 -33.14773 21.03339 133.95434 84.98265 10.71385 -4.1185 -21.92657 19.38573 -3.95146 51.60459 -103.93897 12.77381 -2.37793 42.9982 8.23878 -23.32755 -18.80217 -7.312 -2.87225 -3.67755 50.04978 20.51871 1.1608 -15.56466 -13.9165 -5.08966 0.08497
